<mxfile host="65bd71144e">
    <diagram id="_Lxwwd8MoU2l1HMu992z" name="Discussao">
        <mxGraphModel dx="933" dy="524" grid="0" gridSize="10" guides="1" tooltips="1" connect="1" arrows="1" fold="1" page="1" pageScale="1" pageWidth="1169" pageHeight="827" math="0" shadow="0">
            <root>
                <mxCell id="0"/>
                <mxCell id="1" parent="0"/>
                <mxCell id="yFhnHNw0qDYzLUIcDgWc-1" value="" style="rounded=0;whiteSpace=wrap;html=1;fillColor=none;dashed=1;dashPattern=1 1;strokeColor=#999999;" vertex="1" parent="1">
                    <mxGeometry x="478" y="208" width="344" height="470" as="geometry"/>
                </mxCell>
                <mxCell id="WTvkGD5z3rarOhvuRpCD-42" style="edgeStyle=none;html=1;entryX=0.25;entryY=0;entryDx=0;entryDy=0;exitX=0.166;exitY=1.02;exitDx=0;exitDy=0;exitPerimeter=0;fillColor=#dae8fc;strokeColor=#6c8ebf;" edge="1" parent="1" source="yFhnHNw0qDYzLUIcDgWc-2" target="WTvkGD5z3rarOhvuRpCD-19">
                    <mxGeometry relative="1" as="geometry"/>
                </mxCell>
                <mxCell id="yFhnHNw0qDYzLUIcDgWc-2" value="WebAPI" style="rounded=1;whiteSpace=wrap;html=1;fillColor=#dae8fc;strokeColor=#6c8ebf;" vertex="1" parent="1">
                    <mxGeometry x="523" y="105" width="120" height="60" as="geometry"/>
                </mxCell>
                <mxCell id="WTvkGD5z3rarOhvuRpCD-33" style="edgeStyle=none;html=1;entryX=0.5;entryY=1;entryDx=0;entryDy=0;fillColor=#ffe6cc;strokeColor=#d79b00;" edge="1" parent="1" source="yFhnHNw0qDYzLUIcDgWc-3" target="WTvkGD5z3rarOhvuRpCD-28">
                    <mxGeometry relative="1" as="geometry"/>
                </mxCell>
                <mxCell id="yFhnHNw0qDYzLUIcDgWc-3" value="Application" style="rounded=1;whiteSpace=wrap;html=1;fillColor=#f0a30a;fontColor=#000000;strokeColor=#BD7000;" vertex="1" parent="1">
                    <mxGeometry x="564" y="393" width="120" height="60" as="geometry"/>
                </mxCell>
                <mxCell id="gViK9RqVyHpwHJrT3peH-1" value="Domain" style="rounded=1;whiteSpace=wrap;html=1;fillColor=#e3c800;fontColor=#000000;strokeColor=#B09500;" vertex="1" parent="1">
                    <mxGeometry x="564" y="554" width="120" height="60" as="geometry"/>
                </mxCell>
                <mxCell id="WTvkGD5z3rarOhvuRpCD-1" value="mysql" style="shape=cylinder3;whiteSpace=wrap;html=1;boundedLbl=1;backgroundOutline=1;size=15;fillColor=#dae8fc;strokeColor=#6c8ebf;" vertex="1" parent="1">
                    <mxGeometry x="194" y="321" width="60" height="80" as="geometry"/>
                </mxCell>
                <mxCell id="WTvkGD5z3rarOhvuRpCD-10" style="edgeStyle=none;html=1;entryX=0;entryY=0.5;entryDx=0;entryDy=0;fillColor=#dae8fc;strokeColor=#6c8ebf;" edge="1" parent="1" source="WTvkGD5z3rarOhvuRpCD-2" target="yFhnHNw0qDYzLUIcDgWc-2">
                    <mxGeometry relative="1" as="geometry">
                        <Array as="points">
                            <mxPoint x="358" y="132"/>
                        </Array>
                    </mxGeometry>
                </mxCell>
                <mxCell id="WTvkGD5z3rarOhvuRpCD-2" value="Datasource" style="rounded=1;whiteSpace=wrap;html=1;fillColor=#dae8fc;strokeColor=#6c8ebf;" vertex="1" parent="1">
                    <mxGeometry x="298" y="343" width="120" height="60" as="geometry"/>
                </mxCell>
                <mxCell id="WTvkGD5z3rarOhvuRpCD-3" style="edgeStyle=none;html=1;entryX=1;entryY=0;entryDx=0;entryDy=52.5;entryPerimeter=0;fillColor=#dae8fc;strokeColor=#6c8ebf;" edge="1" parent="1" source="WTvkGD5z3rarOhvuRpCD-2" target="WTvkGD5z3rarOhvuRpCD-1">
                    <mxGeometry relative="1" as="geometry"/>
                </mxCell>
                <mxCell id="WTvkGD5z3rarOhvuRpCD-32" style="edgeStyle=none;html=1;entryX=0.25;entryY=0;entryDx=0;entryDy=0;exitX=0.25;exitY=1;exitDx=0;exitDy=0;fillColor=#d5e8d4;strokeColor=#82b366;" edge="1" parent="1" source="WTvkGD5z3rarOhvuRpCD-5" target="yFhnHNw0qDYzLUIcDgWc-3">
                    <mxGeometry relative="1" as="geometry"/>
                </mxCell>
                <mxCell id="WTvkGD5z3rarOhvuRpCD-5" value="Adapters" style="rounded=1;whiteSpace=wrap;html=1;fillColor=#60a917;strokeColor=#2D7600;fontColor=#ffffff;" vertex="1" parent="1">
                    <mxGeometry x="564" y="254" width="120" height="60" as="geometry"/>
                </mxCell>
                <mxCell id="WTvkGD5z3rarOhvuRpCD-43" style="edgeStyle=none;html=1;entryX=0.5;entryY=1;entryDx=0;entryDy=0;fillColor=#d5e8d4;strokeColor=#82b366;" edge="1" parent="1" source="WTvkGD5z3rarOhvuRpCD-19" target="yFhnHNw0qDYzLUIcDgWc-2">
                    <mxGeometry relative="1" as="geometry"/>
                </mxCell>
                <mxCell id="WTvkGD5z3rarOhvuRpCD-19" value="Controllers" style="rounded=1;whiteSpace=wrap;html=1;fillColor=#d5e8d4;strokeColor=#82b366;" vertex="1" parent="1">
                    <mxGeometry x="533" y="230" width="77" height="32" as="geometry"/>
                </mxCell>
                <mxCell id="WTvkGD5z3rarOhvuRpCD-22" style="edgeStyle=none;html=1;entryX=1;entryY=0.5;entryDx=0;entryDy=0;fillColor=#d5e8d4;strokeColor=#82b366;" edge="1" parent="1" source="WTvkGD5z3rarOhvuRpCD-20" target="WTvkGD5z3rarOhvuRpCD-2">
                    <mxGeometry relative="1" as="geometry"/>
                </mxCell>
                <mxCell id="WTvkGD5z3rarOhvuRpCD-20" value="Gateways" style="rounded=1;whiteSpace=wrap;html=1;fillColor=#d5e8d4;strokeColor=#82b366;" vertex="1" parent="1">
                    <mxGeometry x="499" y="296" width="77" height="32" as="geometry"/>
                </mxCell>
                <mxCell id="WTvkGD5z3rarOhvuRpCD-27" style="edgeStyle=none;html=1;fillColor=#ffe6cc;strokeColor=#d79b00;" edge="1" parent="1" source="WTvkGD5z3rarOhvuRpCD-23" target="WTvkGD5z3rarOhvuRpCD-25">
                    <mxGeometry relative="1" as="geometry"/>
                </mxCell>
                <mxCell id="WTvkGD5z3rarOhvuRpCD-23" value="Use Case" style="rounded=1;whiteSpace=wrap;html=1;fillColor=#ffe6cc;strokeColor=#d79b00;" vertex="1" parent="1">
                    <mxGeometry x="585" y="445" width="77" height="32" as="geometry"/>
                </mxCell>
                <mxCell id="WTvkGD5z3rarOhvuRpCD-25" value="Business Entities" style="rounded=1;whiteSpace=wrap;html=1;fillColor=#ffff88;strokeColor=#36393d;" vertex="1" parent="1">
                    <mxGeometry x="585" y="532" width="77" height="32" as="geometry"/>
                </mxCell>
                <mxCell id="WTvkGD5z3rarOhvuRpCD-29" value="" style="edgeStyle=none;html=1;entryX=0;entryY=0.5;entryDx=0;entryDy=0;endArrow=none;endFill=0;dashed=1;dashPattern=8 8;" edge="1" parent="1" source="WTvkGD5z3rarOhvuRpCD-5" target="WTvkGD5z3rarOhvuRpCD-28">
                    <mxGeometry relative="1" as="geometry">
                        <mxPoint x="684" y="284" as="sourcePoint"/>
                        <mxPoint x="834" y="283" as="targetPoint"/>
                    </mxGeometry>
                </mxCell>
                <mxCell id="WTvkGD5z3rarOhvuRpCD-28" value="Presenters" style="rounded=1;whiteSpace=wrap;html=1;fillColor=#d5e8d4;strokeColor=#82b366;" vertex="1" parent="1">
                    <mxGeometry x="671" y="298" width="77" height="32" as="geometry"/>
                </mxCell>
                <mxCell id="WTvkGD5z3rarOhvuRpCD-40" value="Swagger" style="rounded=1;whiteSpace=wrap;html=1;fillColor=#dae8fc;strokeColor=#6c8ebf;" vertex="1" parent="1">
                    <mxGeometry x="636" y="133" width="77" height="32" as="geometry"/>
                </mxCell>
                <mxCell id="WTvkGD5z3rarOhvuRpCD-45" value="Data Entities" style="rounded=1;whiteSpace=wrap;html=1;fillColor=#dae8fc;strokeColor=#6c8ebf;" vertex="1" parent="1">
                    <mxGeometry x="319.5" y="393" width="77" height="32" as="geometry"/>
                </mxCell>
                <mxCell id="WTvkGD5z3rarOhvuRpCD-46" value="DTOs" style="rounded=1;whiteSpace=wrap;html=1;fillColor=#d5e8d4;strokeColor=#82b366;" vertex="1" parent="1">
                    <mxGeometry x="731" y="325" width="77" height="32" as="geometry"/>
                </mxCell>
            </root>
        </mxGraphModel>
    </diagram>
    <diagram id="hKcNCodFd98NuAm8dloB" name="Rascunho">
        <mxGraphModel dx="746" dy="419" grid="1" gridSize="10" guides="1" tooltips="1" connect="1" arrows="1" fold="1" page="1" pageScale="1" pageWidth="1169" pageHeight="827" math="0" shadow="0">
            <root>
                <mxCell id="0"/>
                <mxCell id="1" parent="0"/>
                <mxCell id="2" value="" style="rounded=0;whiteSpace=wrap;html=1;dashed=1;dashPattern=12 12;" parent="1" vertex="1">
                    <mxGeometry x="300" y="130" width="540" height="430" as="geometry"/>
                </mxCell>
                <mxCell id="3" value="" style="shape=cylinder3;whiteSpace=wrap;html=1;boundedLbl=1;backgroundOutline=1;size=15;" parent="1" vertex="1">
                    <mxGeometry x="890" y="440" width="60" height="80" as="geometry"/>
                </mxCell>
                <mxCell id="24" style="edgeStyle=none;html=1;entryX=0;entryY=0.5;entryDx=0;entryDy=0;" parent="1" source="4" target="23" edge="1">
                    <mxGeometry relative="1" as="geometry"/>
                </mxCell>
                <mxCell id="31" value="DTO" style="edgeLabel;html=1;align=center;verticalAlign=middle;resizable=0;points=[];" parent="24" vertex="1" connectable="0">
                    <mxGeometry x="-0.1017" y="-1" relative="1" as="geometry">
                        <mxPoint as="offset"/>
                    </mxGeometry>
                </mxCell>
                <mxCell id="25" style="edgeStyle=none;html=1;entryX=0;entryY=0.5;entryDx=0;entryDy=0;" parent="1" source="4" target="20" edge="1">
                    <mxGeometry relative="1" as="geometry">
                        <Array as="points">
                            <mxPoint x="430" y="480"/>
                        </Array>
                    </mxGeometry>
                </mxCell>
                <mxCell id="4" value="WebAPI&lt;div&gt;Controllers&lt;/div&gt;" style="rounded=1;whiteSpace=wrap;html=1;" parent="1" vertex="1">
                    <mxGeometry x="370" y="315" width="120" height="60" as="geometry"/>
                </mxCell>
                <mxCell id="17" style="edgeStyle=none;html=1;entryX=0.067;entryY=0.067;entryDx=0;entryDy=0;entryPerimeter=0;" parent="1" source="5" target="4" edge="1">
                    <mxGeometry relative="1" as="geometry"/>
                </mxCell>
                <mxCell id="5" value="Frontend&lt;div&gt;Totem&lt;/div&gt;" style="rounded=1;whiteSpace=wrap;html=1;" parent="1" vertex="1">
                    <mxGeometry x="100" y="210" width="120" height="60" as="geometry"/>
                </mxCell>
                <mxCell id="9" style="edgeStyle=none;html=1;entryX=0;entryY=0.5;entryDx=0;entryDy=0;" parent="1" source="6" target="5" edge="1">
                    <mxGeometry relative="1" as="geometry"/>
                </mxCell>
                <mxCell id="10" style="edgeStyle=none;html=1;entryX=0;entryY=0.5;entryDx=0;entryDy=0;" parent="1" source="6" target="8" edge="1">
                    <mxGeometry relative="1" as="geometry"/>
                </mxCell>
                <mxCell id="6" value="Cliente" style="shape=umlActor;verticalLabelPosition=bottom;verticalAlign=top;html=1;outlineConnect=0;" parent="1" vertex="1">
                    <mxGeometry x="20" y="270" width="30" height="60" as="geometry"/>
                </mxCell>
                <mxCell id="18" style="edgeStyle=none;html=1;" parent="1" source="8" target="4" edge="1">
                    <mxGeometry relative="1" as="geometry"/>
                </mxCell>
                <mxCell id="8" value="Frontend&lt;div&gt;Telão&lt;/div&gt;" style="rounded=1;whiteSpace=wrap;html=1;" parent="1" vertex="1">
                    <mxGeometry x="100" y="319" width="120" height="60" as="geometry"/>
                </mxCell>
                <mxCell id="14" style="edgeStyle=none;html=1;" parent="1" source="11" target="12" edge="1">
                    <mxGeometry relative="1" as="geometry"/>
                </mxCell>
                <mxCell id="11" value="Cozinha" style="shape=umlActor;verticalLabelPosition=bottom;verticalAlign=top;html=1;outlineConnect=0;" parent="1" vertex="1">
                    <mxGeometry x="20" y="433" width="30" height="60" as="geometry"/>
                </mxCell>
                <mxCell id="19" style="edgeStyle=none;html=1;" parent="1" source="12" target="4" edge="1">
                    <mxGeometry relative="1" as="geometry"/>
                </mxCell>
                <mxCell id="12" value="Frontend&lt;div&gt;Cozinha&lt;/div&gt;" style="rounded=1;whiteSpace=wrap;html=1;" parent="1" vertex="1">
                    <mxGeometry x="100" y="433" width="120" height="60" as="geometry"/>
                </mxCell>
                <mxCell id="26" style="edgeStyle=none;html=1;" parent="1" source="20" target="3" edge="1">
                    <mxGeometry relative="1" as="geometry"/>
                </mxCell>
                <mxCell id="29" style="edgeStyle=none;html=1;entryX=0.317;entryY=1.017;entryDx=0;entryDy=0;entryPerimeter=0;" parent="1" source="20" target="27" edge="1">
                    <mxGeometry relative="1" as="geometry"/>
                </mxCell>
                <mxCell id="30" style="edgeStyle=none;html=1;entryX=0.5;entryY=1;entryDx=0;entryDy=0;" parent="1" source="20" target="23" edge="1">
                    <mxGeometry relative="1" as="geometry">
                        <Array as="points">
                            <mxPoint x="600" y="370"/>
                        </Array>
                    </mxGeometry>
                </mxCell>
                <mxCell id="32" value="Entity" style="edgeLabel;html=1;align=center;verticalAlign=middle;resizable=0;points=[];" parent="30" vertex="1" connectable="0">
                    <mxGeometry x="-0.0533" relative="1" as="geometry">
                        <mxPoint as="offset"/>
                    </mxGeometry>
                </mxCell>
                <mxCell id="20" value="Gateway&lt;div&gt;Repositories&lt;/div&gt;" style="rounded=1;whiteSpace=wrap;html=1;" parent="1" vertex="1">
                    <mxGeometry x="585" y="450" width="120" height="60" as="geometry"/>
                </mxCell>
                <mxCell id="28" style="edgeStyle=none;html=1;" parent="1" source="23" target="27" edge="1">
                    <mxGeometry relative="1" as="geometry"/>
                </mxCell>
                <mxCell id="23" value="Application&lt;div&gt;Use Cases&lt;/div&gt;" style="rounded=1;whiteSpace=wrap;html=1;" parent="1" vertex="1">
                    <mxGeometry x="585" y="240" width="120" height="60" as="geometry"/>
                </mxCell>
                <mxCell id="27" value="Domain&lt;div&gt;Entities&lt;/div&gt;" style="rounded=1;whiteSpace=wrap;html=1;" parent="1" vertex="1">
                    <mxGeometry x="670" y="340" width="120" height="60" as="geometry"/>
                </mxCell>
            </root>
        </mxGraphModel>
    </diagram>
</mxfile>